<svg xmlns="http://www.w3.org/2000/svg" xmlns:xlink="http://www.w3.org/1999/xlink" xml:space="preserve" version="1.1" style="shape-rendering:geometricPrecision;text-rendering:geometricPrecision;image-rendering:optimizeQuality;" viewBox="0 0 387 403.75" x="0px" y="0px" fill-rule="evenodd" clip-rule="evenodd"><defs><style type="text/css">
   
    .fil0 {fill:black}
   
  </style></defs><g><path class="fil0" d="M108 190l-57 -66 222 0c110,0 111,168 0,168l-236 0c-21,0 -21,31 0,31l236 0c152,0 152,-231 0,-231l-222 0 57 -66c14,-15 -10,-36 -24,-20l-80 92c-5,6 -5,15 0,21l80 92c14,15 38,-5 24,-21z"/></g><text x="0" y="338" fill="#000000" font-size="5px" font-weight="bold" font-family="'Helvetica Neue', Helvetica, Arial-Unicode, Arial, Sans-serif">Created by SELicon</text><text x="0" y="343" fill="#000000" font-size="5px" font-weight="bold" font-family="'Helvetica Neue', Helvetica, Arial-Unicode, Arial, Sans-serif">from the Noun Project</text></svg>